<svg width="148" height="36" fill="none" xmlns="http://www.w3.org/2000/svg"><path d="M132.952 4.916h4.966c2.434 0 3.924 1.117 3.924 3.252v.075c0 1.912-1.391 3.227-3.825 3.227h-5.065l8.89 11.694h5.959l-6.034-7.92c3.03-1.067 5.116-3.5 5.116-7.25V7.92c0-2.135-.671-3.923-1.937-5.189-1.49-1.49-3.725-2.309-6.606-2.309h-10.38v22.742h4.992V4.916zM88.154.397V14.4L77.526.397h-6.903l2.31 3.03v19.712h4.916V8.988l10.752 14.151h4.495V.397h-4.942zm-25.006 0V14.4L52.52.397h-6.903l2.31 3.03v19.712h4.916V8.988l10.752 14.151h4.495V.397h-4.942zm44.475 0h17.109v4.444h-12.168V9.46h10.703v4.444h-10.703v4.767h12.342v4.444h-17.283V.398zm-9.834 0h4.992V23.14h-4.992V.397zM39.98 11.843v-.075c0-3.898-2.855-7.15-6.878-7.15s-6.804 3.178-6.804 7.076v.074c0 3.898 2.856 7.15 6.879 7.15s6.804-3.177 6.804-7.075zm-18.896 0v-.075C21.083 5.288 26.173 0 33.176 0c7.002 0 12.019 5.239 12.019 11.694v.074c0 6.48-5.091 11.769-12.094 11.769-7.002 0-12.018-5.214-12.018-11.694zM10.802 18.77c2.21 0 3.526-.77 3.526-2.458v-.075c0-1.54-1.142-2.458-3.7-2.458h-5.76v5.015l5.934-.024zm-1.34-9.162c2.21 0 3.6-.72 3.6-2.408v-.074c0-1.49-1.167-2.334-3.278-2.334H4.867v4.816h4.594zM0 .398h10.529c2.582 0 4.643.72 5.935 2.01 1.043 1.043 1.564 2.31 1.564 3.873v.075c0 2.557-1.366 3.997-2.98 4.916 2.632 1.018 4.247 2.532 4.247 5.586v.074c0 4.172-3.378 6.232-8.493 6.232H0V.397zm6.407 29.047c0 .422-.075.82-.249 1.142a2.45 2.45 0 01-.695.82c-.298.223-.62.372-.968.472-.348.099-.72.149-1.118.149h-.919v2.507c0 .124.025.248.075.348a.5.5 0 00.273.223c.075.025.199.05.373.075.173.024.347.024.496.05v.421h-3.6v-.397c.099 0 .223-.025.397-.05a2.37 2.37 0 00.372-.074.444.444 0 00.249-.224.822.822 0 00.074-.372v-5.958c0-.125-.025-.249-.05-.373-.024-.124-.124-.198-.273-.248-.149-.05-.298-.075-.447-.1-.149-.024-.273-.024-.372-.05v-.421h3.774c.77 0 1.391.174 1.863.546.472.372.745.894.745 1.514zm-1.788 1.416c.124-.199.223-.373.273-.571.05-.199.075-.373.075-.547 0-.223-.025-.446-.075-.67a1.636 1.636 0 00-.273-.596 1.348 1.348 0 00-.546-.422 2.014 2.014 0 00-.82-.149h-.82v3.625h.597c.422 0 .77-.075 1.018-.199.248-.124.447-.273.57-.471zm8.741 4.692l-1.862.124-.1-.074v-.72h-.025l-.322.322c-.125.1-.249.2-.398.298-.174.1-.347.174-.496.249a2.57 2.57 0 01-.696.074c-.496 0-.894-.174-1.167-.496-.273-.323-.397-.82-.397-1.44v-2.756a.72.72 0 00-.075-.348.705.705 0 00-.223-.248.698.698 0 00-.273-.1c-.124-.024-.224-.024-.323-.05v-.372l1.912-.148.1.074v3.997c0 .422.099.72.272.944a.8.8 0 00.671.322c.223 0 .397-.024.571-.099.174-.074.298-.149.422-.223.1-.075.199-.174.273-.248.075-.1.15-.174.174-.249v-3.252a.792.792 0 00-.074-.348.703.703 0 00-.224-.248c-.074-.05-.174-.075-.323-.075-.149 0-.298-.024-.471-.024v-.373l2.086-.149.099.075v4.543c0 .124.025.248.074.348.05.099.125.173.224.248a.42.42 0 00.248.075c.1 0 .199.024.323.024v.323zm6.183-2.756c0 .87-.273 1.59-.82 2.16-.546.571-1.166.87-1.887.87-.322 0-.62-.05-.918-.15a3.912 3.912 0 01-.87-.397l-.422.67-.372-.074c.025-.298.025-.62.05-1.043.024-.422 0-.794 0-1.167v-5.685a.786.786 0 00-.1-.398.938.938 0 00-.223-.297.92.92 0 00-.373-.125c-.174-.024-.323-.05-.422-.05v-.372l2.11-.124.075.1v3.823h.05c.248-.248.497-.447.795-.571.298-.124.57-.199.844-.199.695 0 1.291.273 1.763.844s.72 1.291.72 2.185zm-1.217.025a3.46 3.46 0 00-.099-.869c-.075-.298-.149-.546-.298-.77a1.565 1.565 0 00-.521-.546c-.224-.149-.472-.198-.77-.198-.273 0-.522.05-.72.148-.2.1-.398.249-.547.423v3.351c.025.1.075.199.15.323.074.124.148.248.272.348.125.099.249.198.398.273.149.074.323.1.546.1.472 0 .844-.224 1.142-.696.298-.472.447-1.093.447-1.887zm4.371 2.855H19.89v-.372c.1 0 .174-.025.273-.025.1 0 .174-.025.248-.05a.453.453 0 00.249-.173c.05-.1.074-.2.074-.348v-6.654a.728.728 0 00-.1-.397.936.936 0 00-.223-.298.92.92 0 00-.372-.124 5.457 5.457 0 01-.447-.075v-.372l2.16-.124.075.1v7.87a.62.62 0 00.074.322c.05.075.124.15.248.199.075.05.174.074.249.1.074.024.174.024.273.049l.025.372zm3.427 0h-2.782v-.372c.1 0 .174-.025.274-.025.099 0 .173-.025.248-.05a.45.45 0 00.248-.173c.05-.1.075-.2.075-.348v-3.55a.794.794 0 00-.075-.348.544.544 0 00-.223-.248c-.075-.05-.174-.075-.323-.124-.15-.05-.273-.05-.373-.05v-.372l2.037-.125.074.075v4.667c0 .125.025.249.075.348.05.1.124.149.248.199.074.025.174.074.248.074.075 0 .174.025.273.05v.372h-.024zm-.745-8.069a.787.787 0 01-.224.571c-.149.15-.323.248-.546.248a.715.715 0 01-.522-.223.77.77 0 01-.223-.546.73.73 0 01.223-.546c.15-.15.323-.249.522-.249a.73.73 0 01.546.224.714.714 0 01.224.521zm3.774 8.218c-.82 0-1.49-.273-1.962-.82-.471-.545-.695-1.29-.695-2.209 0-.397.075-.77.199-1.142a2.88 2.88 0 01.546-.968c.224-.273.521-.497.87-.67a2.45 2.45 0 011.117-.249c.57 0 1.018.124 1.365.397.348.274.522.646.522 1.093 0 .198-.05.372-.15.521-.098.15-.247.224-.47.224-.224 0-.398-.05-.522-.174-.125-.124-.2-.248-.2-.397 0-.174.026-.348.075-.547.05-.173.075-.322.075-.397a.549.549 0 00-.323-.248c-.149-.05-.273-.05-.447-.05s-.372.05-.521.124c-.174.075-.323.224-.497.447-.149.199-.248.447-.348.795-.099.322-.124.72-.124 1.192 0 .72.15 1.315.472 1.762.323.447.745.695 1.266.695.373 0 .696-.099.944-.273a2.33 2.33 0 00.695-.819l.373.248a3.07 3.07 0 01-1.018 1.093 2.133 2.133 0 01-1.242.372zm8.244-.273a2.51 2.51 0 01-.471.149c-.125.025-.298.05-.472.05-.298 0-.547-.075-.72-.224a1.028 1.028 0 01-.348-.62h-.025a2.85 2.85 0 01-.82.645 2.304 2.304 0 01-1.042.223c-.422 0-.795-.124-1.068-.397a1.422 1.422 0 01-.422-1.043c0-.223.025-.422.1-.595.074-.174.148-.323.272-.472a1.6 1.6 0 01.373-.323c.149-.1.298-.174.447-.223.174-.075.521-.199 1.068-.373.546-.174.894-.322 1.067-.422v-.57c0-.05 0-.15-.024-.299a1.097 1.097 0 00-.15-.397 1.17 1.17 0 00-.322-.372c-.125-.1-.348-.15-.596-.15-.174 0-.348.025-.497.1-.149.074-.273.124-.323.199 0 .074.025.198.05.347.025.15.05.298.05.422s-.05.248-.174.373c-.124.124-.298.173-.522.173-.198 0-.347-.074-.422-.198a.963.963 0 01-.149-.472c0-.174.075-.348.199-.521.124-.174.298-.298.496-.447.174-.1.398-.199.646-.273.248-.075.497-.125.72-.125.323 0 .621.025.845.075.223.05.471.149.67.298.199.149.348.348.447.596.1.248.149.57.149.943 0 .546 0 1.043-.025 1.465-.025.422-.025.894-.025 1.415a.83.83 0 00.075.373c.05.099.124.173.248.223.05.025.15.05.273.05h.398v.397h.024zm-2.036-3.054c-.323.1-.62.199-.869.298-.248.1-.472.199-.695.348a1.707 1.707 0 00-.472.471c-.124.174-.174.398-.174.646 0 .323.075.571.248.72a.929.929 0 00.646.223c.273 0 .521-.074.72-.198.199-.124.398-.298.522-.472l.074-2.036zm5.761 2.93c-.248.1-.496.198-.72.273-.223.074-.496.1-.82.1-.471 0-.819-.125-1.017-.373-.2-.248-.298-.596-.298-1.018v-3.898h-1.043v-.546h1.067v-1.788h1.068v1.788H41v.546h-1.64v3.203c0 .248 0 .447.025.596.025.149.05.297.124.422.05.124.15.198.273.248.125.05.298.1.497.1.1 0 .248 0 .422-.026.174-.024.323-.05.397-.074v.447h.025zm3.402.248h-2.78v-.372c.099 0 .173-.025.272-.025.1 0 .174-.025.249-.05a.454.454 0 00.248-.173.72.72 0 00.075-.348v-3.55a.792.792 0 00-.075-.348.543.543 0 00-.224-.248c-.074-.05-.173-.075-.322-.124-.15-.05-.273-.05-.373-.05v-.372l2.036-.125.075.075v4.667c0 .125.025.249.075.348.05.1.124.149.248.199.074.025.174.074.248.074.075 0 .174.025.273.05l-.025.372zm-.745-8.069a.787.787 0 01-.223.571c-.149.15-.323.248-.546.248a.715.715 0 01-.522-.223.77.77 0 01-.223-.546.73.73 0 01.223-.546c.15-.15.323-.249.522-.249a.73.73 0 01.546.224.714.714 0 01.224.521zm6.681 5.14c0 .397-.075.794-.2 1.191a2.94 2.94 0 01-.546.993c-.273.298-.57.547-.943.696a3.002 3.002 0 01-1.192.223c-.373 0-.72-.075-1.043-.199a3.007 3.007 0 01-.87-.596 2.785 2.785 0 01-.595-.943 3.385 3.385 0 01-.224-1.266c0-.894.273-1.639.795-2.21.521-.57 1.217-.844 2.06-.844.796 0 1.466.273 1.987.82.522.496.77 1.216.77 2.135zm-1.193 0c0-.298-.025-.596-.099-.919a2.446 2.446 0 00-.273-.82 1.596 1.596 0 00-.497-.57c-.199-.15-.447-.224-.745-.224s-.546.075-.77.224c-.223.149-.372.347-.521.596a2.65 2.65 0 00-.273.819c-.05.322-.075.596-.075.869 0 .372.025.72.1 1.043.05.322.149.595.298.844.149.248.298.447.496.596.199.148.447.223.745.223.497 0 .87-.224 1.142-.695.274-.472.472-1.167.472-1.986zm7.996 2.929h-2.806v-.372c.1 0 .199-.025.298-.025a.88.88 0 00.273-.05.45.45 0 00.249-.173c.05-.075.074-.2.074-.348v-2.955c0-.397-.1-.72-.298-.943a.88.88 0 00-.695-.323c-.199 0-.397.025-.571.1a3.74 3.74 0 00-.447.223c-.124.1-.224.174-.298.298-.075.124-.124.174-.174.248v3.302a.62.62 0 00.075.323.52.52 0 00.248.199c.074.05.174.074.273.099.1.025.199.025.298.05v.372h-2.806v-.372c.1 0 .174-.025.273-.025.1 0 .174-.025.248-.05.1-.025.2-.1.249-.174a.72.72 0 00.074-.347v-3.55a.995.995 0 00-.074-.373.606.606 0 00-.224-.273.699.699 0 00-.273-.1c-.124-.024-.199-.024-.323-.05v-.372l1.912-.124.075.075v.82h.025c.099-.1.198-.2.347-.324.15-.124.273-.223.398-.322.149-.1.323-.174.521-.224.199-.05.422-.1.67-.1.547 0 .969.175 1.217.522.249.348.398.795.398 1.366v2.98a.62.62 0 00.074.322c.05.074.124.149.248.199.1.05.174.074.249.074.074 0 .174.025.273.025v.372h-.05zm4.42-2.83c.15.149.273.298.373.471.099.174.124.398.124.67 0 .522-.199.97-.596 1.292-.398.323-.919.496-1.54.496-.323 0-.645-.05-.918-.173-.274-.125-.472-.224-.596-.323l-.125.372h-.447l-.05-1.986h.398c.025.15.1.323.199.522.099.198.223.397.372.546.15.173.323.322.546.422.224.124.447.174.72.174.373 0 .671-.075.87-.249.198-.174.298-.422.298-.72a.76.76 0 00-.1-.422 1.114 1.114 0 00-.273-.323 1.67 1.67 0 00-.472-.248c-.198-.074-.397-.149-.62-.223a3.572 3.572 0 01-.596-.224c-.199-.099-.422-.198-.572-.322-.173-.125-.297-.298-.422-.497-.124-.199-.173-.422-.173-.695 0-.472.173-.87.521-1.192.348-.323.82-.497 1.39-.497.224 0 .448.025.696.1.248.074.422.124.571.198l.124-.297h.422l.1 1.837h-.398a1.827 1.827 0 00-.521-1.018c-.273-.273-.596-.397-.993-.397-.323 0-.572.074-.745.248-.174.174-.273.347-.273.57 0 .175.024.324.099.448a.79.79 0 00.273.298c.124.074.273.149.447.223.174.075.397.15.646.224.248.074.496.173.72.273.223.099.372.298.521.422z" fill="#000"/></svg>