<svg width="90" height="35" viewBox="0 0 90 35" fill="none" xmlns="http://www.w3.org/2000/svg">
<g clip-path="url(#clip0_1398_3307)">
<path d="M67.451 27.3062V20.7843H86.3898V14.1694H67.451V7.64749H89.6595V1.0791H59.2021V7.64749V27.3062V33.921H90.0019V27.3062H67.451Z" fill="white"/>
<path d="M59.1983 7.64718H51.2279L47.2237 12.5725L43.2195 7.64718H35.249L43.2378 17.4765L35.249 27.3059H43.2195L47.2237 22.3793L51.2279 27.3059H59.1983L51.2096 17.4765L59.1983 7.64718Z" fill="white"/>
<path d="M19.3296 15.9983V20.7842H27.334C27.236 24.2097 25.0405 27.3526 19.476 27.3526C12.2033 27.3526 8.54287 22.426 8.54287 17.5006C8.54287 12.5753 12.2033 7.60094 19.476 7.60094C23.2344 7.60094 27.0021 10.0881 29.1492 12.7624L35.2509 7.64867C31.5904 3.0964 25.9671 0 19.1336 0C10.3476 0 0 5.9579 0 17.5006C0 29.0434 10.2993 35.0013 19.0852 35.0013C23.5272 35.0013 27.334 33.6409 30.2627 31.2944L31.8727 33.9222H35.2496V15.9983H19.3283H19.3296Z" fill="white"/>
</g>
<defs>
<clipPath id="clip0_1398_3307">
<rect width="90" height="35" fill="white"/>
</clipPath>
</defs>
</svg>
