<?xml version="1.0" encoding="utf-8"?>
<!-- Generator: Adobe Illustrator 24.3.0, SVG Export Plug-In . SVG Version: 6.00 Build 0)  -->
<svg version="1.1" id="Lag_1" xmlns="http://www.w3.org/2000/svg" xmlns:xlink="http://www.w3.org/1999/xlink" x="0px" y="0px"
	 viewBox="0 0 522.1 119.7" style="enable-background:new 0 0 522.1 119.7;" xml:space="preserve">
<style type="text/css">
	.st0{fill-rule:evenodd;clip-rule:evenodd;}
	.st1{fill-rule:evenodd;clip-rule:evenodd;fill:#009EEC;}
</style>
<path class="st0" d="M512.8,107.8h-16.5l-4.2-21l-4.7,21h-14L489,36.5h14.2l-7,31.9L507.4,50h14.7l-15.9,25.2L512.8,107.8
	 M458.3,96.9l7.9-35.9c0.5-1.6-0.2-2.3-1.9-2.3c-1.6,0-2.6,0.7-3,2.6l-7.9,35.7c-0.5,1.9,0.2,2.8,1.9,2.8
	C456.9,99.7,458,98.7,458.3,96.9z M470.1,107.8h-10.7l-0.7-1.9c-3,1.6-5.8,2.6-9.1,2.6c-3.5,0-6.5-0.7-8.6-2.6
	c-2.1-1.6-2.8-4-2.3-6.8l9.3-41.5c0.5-2.6,1.9-4.4,4.2-6.1c2.3-1.4,4.9-2.1,7.9-2.1c3.7,0,6.5,0.7,8.2,2.1l3.5-15.1h14L470.1,107.8z
	 M406.8,43.3H404l1.9-8.2l-3.5,8.2h-2.1l-0.2-8.2l-1.6,8.2h-2.6l3.3-14.5h4l-0.2,7.5l3-7.5h4.2L406.8,43.3z M397.9,30.7h-1.6
	l-2.8,12.6h-3l2.6-12.6h-1.6l0.5-1.9h6.5L397.9,30.7z M397.4,107.3h-16.8l-4.2-21l-4.7,21h-14.2l15.9-71.8h14.2l-7,32.2l11.4-18.4
	h14.7l-16.1,25.4L397.4,107.3z M368.3,49.3l-23.8,57.8c-2.6,5.8-4.9,9.6-7,10.7c-2.1,1.4-5.1,1.9-8.4,1.9h-10l1.9-7.7
	c3.7,0,6.1-0.2,7-0.7c0.9-0.2,1.6-1.4,2.1-3.3c0.2-1.6,0.5-11.2,0-28.2l-0.7-30.5h14.5l-0.9,30.8l11.4-30.8
	C354.3,49.3,368.3,49.3,368.3,49.3z M322.6,73.3h-14.2l2.8-12.6c0.5-1.6-0.2-2.6-1.9-2.6c-1.6,0-2.6,0.7-3,2.6L296,107.3h-14.5
	l13-58h14.2l-0.5,1.9c2.3-1.4,5.4-2.3,9.3-2.3c2.8,0,5.1,0.7,6.8,2.3c1.9,1.4,2.3,3.5,1.9,6.1L322.6,73.3z M292.3,44.9h-8.9
	l-13.8,62.5h-15.9l13.8-62.5H259l1.9-9.3h33.6L292.3,44.9z M250.1,73.3h-14.2l2.8-12.6c0.5-1.6-0.2-2.6-1.9-2.6
	c-1.6,0-2.6,0.7-3,2.6l-10.3,46.6h-14.2l12.8-58h14.2l-0.5,1.9c2.3-1.4,5.4-2.3,9.3-2.3c2.8,0,5.1,0.7,6.8,2.3
	c1.9,1.4,2.3,3.5,1.9,6.1L250.1,73.3z M198.8,74l3-13.3c0.2-1.9-0.2-2.8-1.9-2.8s-2.8,0.9-3.3,2.8L193.9,74H198.8z M211.2,82.9
	h-19.4L189,96.4c-0.5,1.9,0,3,1.6,3c1.9,0,2.8-1.2,3.3-3l2.6-11.7h14.2l-2.6,11.7c-1.9,7.9-8.2,11.9-19.4,11.9s-15.9-4.2-14-12.3
	l7.7-34.7c1.9-8.2,8.2-12.4,19.4-12.4s15.9,4,14.2,11.9L211.2,82.9z M141,84h14.2l-2.6,12.3c-0.5,1.9,0,3,1.6,3s2.8-2.1,3.7-5.8
	c0.9-4.9,0.7-7.9-0.9-9.6c-6.5-3.7-10.5-6.5-11.6-8.2c-1.2-1.4-1.4-3.7-0.7-7l1.6-7.7c1.9-8.2,8.4-12.4,19.3-12.4
	c10.7,0,15.4,4,13.5,11.9l-2.3,11.4h-14l1.9-7c0.9-4.9,0.7-7.2-1.2-7.2c-1.6,0-3,1.4-3.7,4.4c-0.7,3.3-0.7,5.6-0.2,7.2
	c0.5,1.6,4.2,4.4,11.2,8.2c2.8,2.6,3.7,5.6,2.8,9.6l-1.9,8.6c-1.9,8.2-8.4,12.3-19.6,12.3c-11,0-15.6-4-14-11.9L141,84z M120.8,96.6
	l3.3-15.2c-3.5,0.9-5.4,2.3-5.8,4.4l-2.3,10.7c-0.5,1.6,0.2,2.6,1.9,2.6C119.4,99.2,120.3,98.3,120.8,96.6z M132.6,107.3h-12.6
	l0.5-2.1c-1.6,1.9-4.9,3-9.8,3c-7.9,0-11.2-3-9.8-9.1l2.6-11.7c0.7-2.8,2.1-4.9,4.4-7c2.3-1.9,6.5-4.2,13.1-7.2c3.5-1.6,5.6-3,5.8-4
	l1.9-8.6c0.5-1.9-0.2-2.8-1.9-2.8c-1.9,0-3.3,2.3-4.4,7c0,0.7-0.2,2.1-0.5,3.7c-0.2,1.6-0.5,2.8-0.7,3.7h-13.8l2.6-11.7
	c1.6-7.9,8.2-11.9,19.6-11.9c10.7,0,15.1,4.2,13.3,12.3L132.6,107.3z M96.8,107.3H66.9L83,35.6h15.6L84.9,98.3h13.8L96.8,107.3z"/>
<path class="st1" d="M349.2,32.8C252-12.7-65.2,12.3,38,101.5C-105.8,30.7,193.7-44.9,349.2,32.8 M419.1,64.7
	c6.8,0,12.1,5.4,12.1,12.1s-5.4,12.1-12.1,12.1S407,83.6,407,76.8S412.3,64.7,419.1,64.7z"/>
</svg>
