<?xml version="1.0" encoding="UTF-8"?>
<svg id="Layer_2" xmlns="http://www.w3.org/2000/svg" viewBox="0 0 360 52.72">
  <defs>
    <style>
      .cls-1 {
        fill: #fff;
      }
    </style>
  </defs>
  <g id="Updated_x5F_logo">
    <path class="cls-1" d="M320.32,52.72h13.78c5.92,0,9.57-3.12,12.76-10.54l13.15-30.66h-4.75l-4.03,10.8c-1.56,4.17-3.91,10.48-5.73,15.49h-.78c-1.82-4.95-4.43-11.46-6.05-15.62l-4.23-10.67h-4.95l13.34,30.07c-2.67,6.05-4.95,7.03-8.59,7.03h-13.91M324.53,0h-4.43v42.29h4.43V0ZM310.34,11.52h-4.43v30.27h4.43V11.52ZM310.93.52h-5.53v4.56h5.53V.52ZM253.2,24.34c0-5.66,4.03-9.44,10.09-9.44,5.27,0,7.29,3.51,7.29,8.07v18.81h4.49v-17.44c0-5.66,3.9-9.44,10.09-9.44,5.27,0,7.29,3.51,7.29,8.07v18.81h4.49v-19.79c0-6.64-3.25-11.2-10.28-11.2-6.38,0-10.02,3.58-11.39,9.05h-.65c-.59-5.47-3.64-9.05-9.7-9.05-5.6,0-9.57,3.25-11.26,8.53h-.52v-7.81h-4.43v30.27h4.49v-17.44ZM236.14,41.79h4.23v-19.4c0-7.49-3.58-11.52-11.78-11.52-6.83,0-11.13,3.45-12.5,9.37l4.3,1.11c1.04-4.43,3.58-6.7,8.14-6.7,5.47,0,7.42,2.8,7.42,7.81v2.8h-10.41c-7.16,0-10.61,3.84-10.61,8.85,0,5.79,3.64,8.33,9.57,8.33,5.47,0,9.57-2.73,11.13-7.88h.52v7.22ZM225.73,38.73c-4.82,0-6.44-2.41-6.44-5.01,0-3.38,2.41-5.14,6.77-5.14h9.89v2.08c0,4.62-4.04,8.07-10.22,8.07M211.59,25.51v-4.17h-18.09V7.09h20.44V2.73h-25.12v39.05h4.69v-16.27h18.09ZM169.74,44.19c0-4.49-3.19-7.09-9.11-7.09-3.38,0-7.03.07-10.48.07-2.15,0-3.32-.52-3.32-1.89,0-.78.39-1.37.98-2.21l1.11-1.63c1.5.46,3.19.65,5.08.65,8.33,0,12.63-3.32,12.63-9.24,0-4.69-3.58-6.64-7.88-7.49l.07-.52c2.8.26,4.75.39,6.38.39h3.71v-3.71h-14.38c-8.07,0-12.82,3.64-12.82,10.54,0,4.43,2.28,7.75,6.57,9.18l-2.28,1.56c-1.63.98-2.86,2.21-2.86,3.71,0,2.15,1.43,3.32,3.38,3.84v.26c-4.3.85-6.7,2.8-6.7,5.47,0,4.04,3.38,6.57,14.71,6.57s15.23-2.67,15.23-8.46M154.64,49.07c-8.59,0-11-1.24-11-4.23,0-1.95,1.76-4.23,5.92-4.23h11.13c3.64,0,5.21,1.63,5.21,3.71,0,3.12-2.08,4.75-11.26,4.75M153.99,15.29c5.6,0,8.59,2.54,8.59,6.7s-2.6,6.64-8.53,6.64-8.2-2.41-8.2-6.64,2.47-6.7,8.14-6.7M112.99,24.34c0-5.66,4.03-9.44,10.09-9.44,5.47,0,7.29,3.51,7.29,8.07v18.81h4.49v-19.79c0-6.64-3.12-11.2-10.22-11.2-5.4,0-9.57,3.32-11.19,8.53h-.52v-7.81h-4.43v30.27h4.49v-17.44ZM99.12,11.52h-4.43v30.27h4.43V11.52ZM99.71.52h-5.53v4.56h5.53V.52ZM77.38,41.79v-15.56c0-7.29,2.99-10.15,9.7-10.15h1.43v-4.88h-1.24c-4.88,0-8.14,2.6-9.63,8.46h-.39v-8.14h-4.36v30.27h4.49ZM66.32,26.68c0-10.22-4.3-15.88-12.24-15.88-6.18,0-9.63,3.71-11.13,8.85h-.39v-8.14h-4.49v40.22h4.49v-18.22h.33c1.43,5.21,5.34,8.98,11.52,8.98,7.42,0,11.91-5.6,11.91-15.82M52.52,38.53c-6.05,0-9.96-4.36-9.96-10.67v-2.28c0-6.57,3.9-10.67,9.96-10.67s9.31,3.78,9.31,11.78-3.06,11.85-9.31,11.85M16.73,42.5c10.35,0,14.58-4.49,14.58-11.13,0-5.4-2.86-9.24-13.86-11.32-8.92-1.76-11-4.17-11-7.75,0-3.91,2.93-6.31,9.05-6.31,6.51,0,8.85,2.93,10.15,8.59l4.69-.98c-1.56-7.03-5.4-11.59-14.64-11.59S1.82,6.18,1.82,12.56c0,5.66,3.45,9.63,14.06,11.52,8.01,1.43,10.74,3.45,10.74,7.62s-2.93,6.83-9.76,6.83c-7.49,0-11.26-3.58-12.37-10.15l-4.49.98c1.11,7.88,6.05,13.08,16.73,13.15"/>
  </g>
</svg>