<svg aria-label="callas software logo" role="img" class="logo--on-light width--100 height--auto" xmlns="http://www.w3.org/2000/svg" width="171" height="51" viewBox="0 0 171 51" fill="none">\
  <g clip-path="url(#clip0_69_1280)">\
    <mask id="mask0_69_1280" style="mask-type:luminance" maskUnits="userSpaceOnUse" x="83" y="25" width="16" height="19">\
      <path d="M83.1396 34.3021C83.1396 40.1997 87.0494 43.5986 92.0908 43.5986C94.0638 43.5986 96.3637 42.8821 98.1188 41.384L95.9642 38.0622C95.0867 38.7431 94.0275 39.3471 92.7142 39.3471C90.3781 39.3471 88.6592 37.3812 88.6592 34.3081C88.6592 31.2349 90.3054 29.2691 92.8958 29.2691C93.737 29.2691 94.542 29.5888 95.4195 30.3053L97.8646 27.0545C96.6602 25.8406 94.7962 25.0176 92.569 25.0176C87.5638 25.0176 83.1457 28.4164 83.1457 34.314" fill="white"></path>\
    </mask>\
    <g mask="url(#mask0_69_1280)">\
      <path d="M98.1188 25.0059H83.1396V43.5928H98.1188V25.0059Z" fill="#BF0D3E"></path>\
    </g>\
    <mask id="mask1_69_1280" style="mask-type:luminance" maskUnits="userSpaceOnUse" x="99" y="25" width="17" height="19">\
      <path d="M104.988 37.8371C104.988 36.4811 106.229 35.4094 110.066 34.9061V38.0147C109.116 38.9444 108.311 39.5187 107.07 39.5187C105.829 39.5187 104.988 38.9858 104.988 37.8371ZM100.491 27.3327L102.392 30.8026C104.147 29.8019 105.678 29.192 107.215 29.192C109.152 29.192 109.957 30.1927 110.066 31.7678C102.906 32.4843 99.874 34.5212 99.874 38.2397C99.874 41.2418 101.956 43.6044 105.242 43.6044C107.288 43.6044 109.007 42.6748 110.538 41.3543H110.647L111.046 43.1781H115.428V33.029C115.428 27.5933 112.874 25.0234 108.232 25.0234C105.382 25.0234 102.791 25.9886 100.485 27.3446" fill="white"></path>\
    </mask>\
    <g mask="url(#mask1_69_1280)">\
      <path d="M115.434 25.0059H99.874V43.5928H115.434V25.0059Z" fill="#BF0D3E"></path>\
    </g>\
    <mask id="mask2_69_1280" style="mask-type:luminance" maskUnits="userSpaceOnUse" x="119" y="17" width="8" height="27">\
      <path d="M119.356 19.5466V37.6598C119.356 41.2362 120.597 43.5929 124.288 43.5929C125.493 43.5929 126.407 43.4152 126.988 43.1606L126.334 39.2644C126.038 39.3355 125.892 39.3355 125.674 39.3355C125.239 39.3355 124.724 38.9802 124.724 37.867V17.1484L119.356 19.5525V19.5466Z" fill="white"></path>\
    </mask>\
    <g mask="url(#mask2_69_1280)">\
      <path d="M126.988 17.1484H119.356V43.5988H126.988V17.1484Z" fill="#BF0D3E"></path>\
    </g>\
    <mask id="mask3_69_1280" style="mask-type:luminance" maskUnits="userSpaceOnUse" x="138" y="25" width="16" height="19">\
      <path d="M143.492 37.8371C143.492 36.4811 144.733 35.4094 148.57 34.9061V38.0147C147.62 38.9444 146.815 39.5187 145.574 39.5187C144.333 39.5187 143.492 38.9858 143.492 37.8371ZM138.995 27.3327L140.896 30.8026C142.651 29.8019 144.182 29.192 145.719 29.192C147.656 29.192 148.461 30.1927 148.57 31.7678C141.41 32.4843 138.378 34.5212 138.378 38.2397C138.378 41.2418 140.46 43.6044 143.746 43.6044C145.792 43.6044 147.511 42.6748 149.042 41.3543H149.151L149.55 43.1781H153.932V33.029C153.932 27.5933 151.378 25.0234 146.736 25.0234C143.885 25.0234 141.295 25.9886 138.989 27.3446" fill="white"></path>\
    </mask>\
    <g mask="url(#mask3_69_1280)">\
      <path d="M153.938 25.0059H138.378V43.5928H153.938V25.0059Z" fill="#BF0D3E"></path>\
    </g>\
    <mask id="mask4_69_1280" style="mask-type:luminance" maskUnits="userSpaceOnUse" x="156" y="25" width="15" height="19">\
      <path d="M157.206 30.5481C157.206 33.4791 159.797 34.9416 161.994 35.7647C163.858 36.4812 165.686 37.0141 165.686 38.1924C165.686 39.1221 164.99 39.6964 163.386 39.6964C161.782 39.6964 160.354 39.051 158.713 37.8372L156.305 41.1294C158.132 42.5919 160.868 43.5986 163.247 43.5986C168.106 43.5986 170.697 41.0939 170.697 37.8786C170.697 34.6633 168.1 33.3784 165.801 32.5554C163.937 31.8744 162.26 31.4481 162.26 30.3053C162.26 29.4112 162.92 28.9079 164.306 28.9079C165.583 28.9079 166.823 29.4822 168.143 30.4119L170.558 27.2677C168.984 26.1249 166.938 25.0176 164.166 25.0176C159.966 25.0176 157.225 27.2677 157.225 30.5599" fill="white"></path>\
    </mask>\
    <g mask="url(#mask4_69_1280)">\
      <path d="M170.685 25.0059H156.292V43.5928H170.685V25.0059Z" fill="#BF0D3E"></path>\
    </g>\
    <mask id="mask5_69_1280" style="mask-type:luminance" maskUnits="userSpaceOnUse" x="129" y="17" width="8" height="27">\
      <path d="M129.221 19.5466V37.6598C129.221 41.2362 130.462 43.5929 134.154 43.5929C135.358 43.5929 136.272 43.4152 136.859 43.1606L136.199 39.2644C135.903 39.3355 135.758 39.3355 135.54 39.3355C135.104 39.3355 134.589 38.9802 134.589 37.867V17.1484L129.221 19.5525V19.5466Z" fill="white"></path>\
    </mask>\
    <g mask="url(#mask5_69_1280)">\
      <path d="M136.859 17.1484H129.221V43.5988H136.859V17.1484Z" fill="#BF0D3E"></path>\
    </g>\
    <mask id="mask6_69_1280" style="mask-type:luminance" maskUnits="userSpaceOnUse" x="0" y="0" width="74" height="51">\
      <path d="M28.5549 41.3306C28.3612 41.2062 28.2281 41.0759 28.0344 40.9457C24.9175 38.9147 22.3212 35.7409 20.8323 31.6137C20.7052 31.3591 20.6386 31.1045 20.5721 30.8499C19.7913 28.6294 19.4706 26.4681 19.4706 24.372C19.4706 17.1303 23.7495 11.1675 30.8911 8.876C33.554 8.05294 36.0173 7.85754 38.2868 8.17729C38.5471 8.24243 38.8073 8.24243 39.0676 8.30164C39.7151 8.42598 40.3022 8.61547 40.9498 8.81087C42.8925 9.50958 44.7082 10.5873 46.3968 11.8603L42.5657 19.4159C39.7091 17.2546 36.9856 16.0526 33.4148 17.1954C30.2979 18.1487 28.6154 20.8133 28.7425 24.3069C28.7425 25.5148 29.0028 26.7168 29.4567 28.0491C29.5233 28.3037 29.5898 28.5583 29.7169 28.813C29.7835 29.0676 29.9106 29.3222 30.0437 29.5768C31.926 33.7691 35.4302 35.7349 39.1947 34.527C41.3977 33.8283 42.8925 32.6855 43.994 31.0334L44.3814 30.465C44.8353 29.7663 45.2287 29.0024 45.5495 28.1794C45.61 28.1142 45.61 28.055 45.6766 27.9248L52.9452 31.2881C52.1645 33.5085 51.1962 35.5395 49.8949 37.3218C48.0793 39.7377 45.4829 41.6385 41.7184 42.7813C40.048 43.3201 38.3534 43.5806 36.6891 43.5806C33.8324 43.5806 31.0424 42.8049 28.5428 41.3187M20.681 5.5364C18.6051 7.13515 16.7834 9.10101 15.2704 11.2564C13.7634 13.4117 12.5711 15.8098 11.8145 18.3915C11.3727 19.9902 11.058 21.6541 10.8704 23.3772C10.8099 24.0522 10.8099 24.7924 10.8099 25.4674C10.8099 26.326 10.8099 27.1254 10.9309 27.9248L0.68457 31.4361L4.83637 43.1247L15.2098 39.6785C18.0362 43.7997 22.0004 47.0564 26.715 49.0282L27.6592 49.3953C29.608 50.0704 31.6234 50.5618 33.6932 50.8105C34.3832 50.9349 35.0792 50.9349 35.8296 50.9941H37.9661C40.7985 50.8697 43.5643 50.3191 46.076 49.3953C55.3177 45.9491 61.9812 37.5824 62.8043 27.5576C62.8648 27.2497 62.8648 26.8826 62.8648 26.5155C62.8648 26.2076 62.9253 25.8405 62.9253 25.4674C62.9253 25.1595 62.8648 24.7924 62.8648 24.4194C62.8648 24.1115 62.8648 23.8036 62.8043 23.4956L73.0506 20.0495L68.9049 8.30164L58.7795 11.6827C57.2726 9.34378 55.3237 7.25357 53.0602 5.53048C49.1626 2.46325 44.3209 0.550679 39.0434 0.124347C38.6681 0.0592128 38.2868 0.0592128 37.9721 0.0592128C37.5969 0.0592128 37.2156 0 36.9009 0C30.7397 0 25.1415 2.09021 20.681 5.5364Z" fill="white"></path>\
    </mask>\
    <g mask="url(#mask6_69_1280)">\
      <path d="M73.0567 0H0.68457V51H73.0567V0Z" fill="#BF0D3E"></path>\
    </g>\
  </g>\
  <defs>\
    <clipPath id="clip0_69_1280">\
      <rect x="0.68457" width="170" height="51" rx="10" fill="white"></rect>\
    </clipPath>\
  </defs>\
</svg>