<?xml version="1.0" encoding="UTF-8"?>
<svg xmlns="http://www.w3.org/2000/svg" width="171" height="52" viewBox="0 0 171 52" fill="none">
  <g clip-path="url(#clip0_69_1591)">
    <mask id="mask0_69_1591" style="mask-type:luminance" maskUnits="userSpaceOnUse" x="83" y="25" width="15" height="20">
      <path d="M83.0098 35.1889C83.0098 41.0865 86.9195 44.4853 91.961 44.4853C93.934 44.4853 96.2338 43.7688 97.9889 42.2707L95.8344 38.9489C94.9568 39.6298 93.8977 40.2338 92.5843 40.2338C90.2482 40.2338 88.5294 38.2679 88.5294 35.1948C88.5294 32.1216 90.1756 30.1558 92.7659 30.1558C93.6071 30.1558 94.4121 30.4755 95.2897 31.192L97.7347 27.9412C96.5304 26.7274 94.6663 25.9043 92.4391 25.9043C87.4339 25.9043 83.0158 29.3031 83.0158 35.2007" fill="white"></path>
    </mask>
    <g mask="url(#mask0_69_1591)">
      <path d="M97.9889 25.8926H83.0098V44.4795H97.9889V25.8926Z" fill="white"></path>
    </g>
    <mask id="mask1_69_1591" style="mask-type:luminance" maskUnits="userSpaceOnUse" x="99" y="25" width="17" height="20">
      <path d="M104.858 38.7238C104.858 37.3678 106.099 36.2961 109.936 35.7928V38.9014C108.986 39.8311 108.181 40.4055 106.94 40.4055C105.699 40.4055 104.858 39.8725 104.858 38.7238ZM100.361 28.2195L102.262 31.6893C104.017 30.6886 105.548 30.0787 107.085 30.0787C109.022 30.0787 109.827 31.0794 109.936 32.6545C102.776 33.371 99.7441 35.4079 99.7441 39.1265C99.7441 42.1286 101.826 44.4911 105.112 44.4911C107.158 44.4911 108.877 43.5615 110.408 42.2411H110.517L110.916 44.0648H115.298V33.9157C115.298 28.48 112.744 25.9102 108.102 25.9102C105.252 25.9102 102.661 26.8753 100.355 28.2313" fill="white"></path>
    </mask>
    <g mask="url(#mask1_69_1591)">
      <path d="M115.304 25.8926H99.7441V44.4795H115.304V25.8926Z" fill="white"></path>
    </g>
    <mask id="mask2_69_1591" style="mask-type:luminance" maskUnits="userSpaceOnUse" x="119" y="18" width="8" height="27">
      <path d="M119.226 20.4333V38.5465C119.226 42.1229 120.467 44.4796 124.159 44.4796C125.363 44.4796 126.277 44.302 126.858 44.0473L126.204 40.1511C125.908 40.2222 125.762 40.2222 125.545 40.2222C125.109 40.2222 124.594 39.8669 124.594 38.7537V18.0352L119.226 20.4392V20.4333Z" fill="white"></path>
    </mask>
    <g mask="url(#mask2_69_1591)">
      <path d="M126.858 18.0352H119.226V44.4855H126.858V18.0352Z" fill="white"></path>
    </g>
    <mask id="mask3_69_1591" style="mask-type:luminance" maskUnits="userSpaceOnUse" x="138" y="25" width="16" height="20">
      <path d="M143.362 38.7238C143.362 37.3678 144.603 36.2961 148.44 35.7928V38.9014C147.49 39.8311 146.685 40.4055 145.444 40.4055C144.203 40.4055 143.362 39.8725 143.362 38.7238ZM138.865 28.2195L140.766 31.6893C142.521 30.6886 144.052 30.0787 145.589 30.0787C147.526 30.0787 148.331 31.0794 148.44 32.6545C141.28 33.371 138.248 35.4079 138.248 39.1265C138.248 42.1286 140.33 44.4911 143.616 44.4911C145.662 44.4911 147.381 43.5615 148.912 42.2411H149.021L149.42 44.0648H153.802V33.9157C153.802 28.48 151.248 25.9102 146.606 25.9102C143.756 25.9102 141.165 26.8753 138.859 28.2313" fill="white"></path>
    </mask>
    <g mask="url(#mask3_69_1591)">
      <path d="M153.808 25.8926H138.248V44.4795H153.808V25.8926Z" fill="white"></path>
    </g>
    <mask id="mask4_69_1591" style="mask-type:luminance" maskUnits="userSpaceOnUse" x="156" y="25" width="15" height="20">
      <path d="M157.077 31.4348C157.077 34.3658 159.667 35.8284 161.864 36.6514C163.728 37.3679 165.556 37.9008 165.556 39.0791C165.556 40.0088 164.86 40.5832 163.256 40.5832C161.652 40.5832 160.224 39.9377 158.584 38.7239L156.175 42.0161C158.003 43.4787 160.738 44.4853 163.117 44.4853C167.977 44.4853 170.567 41.9806 170.567 38.7653C170.567 35.5501 167.971 34.2651 165.671 33.4421C163.807 32.7611 162.13 32.3348 162.13 31.192C162.13 30.2979 162.79 29.7946 164.176 29.7946C165.453 29.7946 166.694 30.3689 168.013 31.2986L170.428 28.1544C168.854 27.0116 166.808 25.9043 164.037 25.9043C159.836 25.9043 157.095 28.1544 157.095 31.4466" fill="white"></path>
    </mask>
    <g mask="url(#mask4_69_1591)">
      <path d="M170.555 25.8926H156.163V44.4795H170.555V25.8926Z" fill="white"></path>
    </g>
    <mask id="mask5_69_1591" style="mask-type:luminance" maskUnits="userSpaceOnUse" x="129" y="18" width="8" height="27">
      <path d="M129.091 20.4333V38.5465C129.091 42.1229 130.332 44.4796 134.024 44.4796C135.228 44.4796 136.142 44.302 136.729 44.0473L136.069 40.1511C135.773 40.2222 135.628 40.2222 135.41 40.2222C134.974 40.2222 134.46 39.8669 134.46 38.7537V18.0352L129.091 20.4392V20.4333Z" fill="white"></path>
    </mask>
    <g mask="url(#mask5_69_1591)">
      <path d="M136.729 18.0352H129.091V44.4855H136.729V18.0352Z" fill="white"></path>
    </g>
    <mask id="mask6_69_1591" style="mask-type:luminance" maskUnits="userSpaceOnUse" x="0" y="0" width="73" height="52">
      <path d="M28.425 42.2173C28.2314 42.0929 28.0982 41.9627 27.9045 41.8324C24.7877 39.8014 22.1913 36.6276 20.7024 32.5004C20.5753 32.2458 20.5088 31.9912 20.4422 31.7366C19.6615 29.5161 19.3407 27.3548 19.3407 25.2587C19.3407 18.017 23.6196 12.0543 30.7612 9.76272C33.4241 8.93966 35.8874 8.74426 38.1569 9.06401C38.4172 9.12914 38.6774 9.12914 38.9377 9.18836C39.5853 9.3127 40.1723 9.50218 40.8199 9.69759C42.7627 10.3963 44.5783 11.474 46.2669 12.747L42.4358 20.3026C39.5792 18.1413 36.8557 16.9393 33.2849 18.0821C30.1681 19.0354 28.4855 21.7 28.6126 25.1936C28.6126 26.4015 28.8729 27.6035 29.3268 28.9358C29.3934 29.1904 29.46 29.4451 29.587 29.6997C29.6536 29.9543 29.7807 30.2089 29.9139 30.4635C31.7961 34.6558 35.3003 36.6217 39.0648 35.4137C41.2678 34.715 42.7627 33.5722 43.8642 31.9202L44.2515 31.3517C44.7054 30.653 45.0988 29.8892 45.4196 29.0661C45.4801 29.001 45.4801 28.9418 45.5467 28.8115L52.8154 32.1748C52.0346 34.3953 51.0663 36.4263 49.765 38.2086C47.9494 40.6244 45.353 42.5252 41.5885 43.668C39.9181 44.2068 38.2235 44.4674 36.5592 44.4674C33.7025 44.4674 30.9125 43.6917 28.4129 42.2054M20.5511 6.42312C18.4752 8.02186 16.6535 9.98773 15.1405 12.1431C13.6335 14.2984 12.4412 16.6965 11.6847 19.2782C11.2429 20.877 10.9281 22.5408 10.7405 24.2639C10.68 24.939 10.68 25.6791 10.68 26.3542C10.68 27.2127 10.68 28.0121 10.801 28.8115L0.554688 32.3228L4.70649 44.0114L15.0799 40.5652C17.9063 44.6864 21.8705 47.9432 26.5852 49.9149L27.5293 50.2821C29.4781 50.9571 31.4935 51.4485 33.5633 51.6972C34.2533 51.8216 34.9493 51.8216 35.6998 51.8808H37.8362C40.6686 51.7565 43.4345 51.2058 45.9461 50.2821C55.1878 46.8359 61.8513 38.4691 62.6744 28.4444C62.7349 28.1365 62.7349 27.7693 62.7349 27.4022C62.7349 27.0943 62.7954 26.7272 62.7954 26.3542C62.7954 26.0462 62.7349 25.6791 62.7349 25.3061C62.7349 24.9982 62.7349 24.6903 62.6744 24.3824L72.9207 20.9362L68.775 9.18836L58.6497 12.5694C57.1427 10.2305 55.1939 8.14029 52.9303 6.4172C49.0327 3.34997 44.191 1.4374 38.9135 1.01107C38.5382 0.945932 38.1569 0.945932 37.8422 0.945932C37.467 0.945932 37.0857 0.886719 36.771 0.886719C30.6099 0.886719 25.0116 2.97693 20.5511 6.42312Z" fill="white"></path>
    </mask>
    <g mask="url(#mask6_69_1591)">
      <path d="M72.9268 0.886719H0.554688V51.8867H72.9268V0.886719Z" fill="white"></path>
    </g>
  </g>
  <defs>
    <clipPath id="clip0_69_1591">
      <rect x="0.554688" y="0.886719" width="170" height="51" rx="10" fill="white"></rect>
    </clipPath>
  </defs>
</svg>
