<svg width="732" height="157" viewBox="0 0 732 157" fill="none" xmlns="http://www.w3.org/2000/svg">
<path d="M320.402 104.349C306.645 87.6054 304.589 75.7584 308.543 52.2223C308.543 52.2223 307.594 53.1701 307.752 52.8541C305.38 55.2235 303.324 57.9089 301.427 60.9101C285.456 85.8678 292.888 118.881 317.714 134.835C330.207 142.733 344.755 144.945 358.196 141.944C357.721 141.944 360.726 141.312 359.777 140.996C338.113 132.94 325.305 122.199 320.402 104.349Z" fill="#F0E904"/>
<path d="M409.747 53.8019C409.114 53.328 408.165 53.328 408.165 53.328C412.119 75.9163 406.268 95.6613 395.357 104.507C390.455 119.355 381.599 132.15 357.88 139.89C357.88 139.89 357.88 141.786 358.354 141.786C379.702 146.525 402.789 137.837 415.123 118.408C428.406 97.5569 425.402 71.1775 409.747 53.8019Z" fill="#E5178A"/>
<path d="M357.88 39.4275C375.59 34.5308 397.254 43.3765 410.063 56.1713C410.537 56.6452 409.272 53.1701 409.747 53.8019C406.11 42.1128 398.519 31.5295 387.45 24.4213C362.465 8.46732 329.416 15.8914 313.445 40.6912C310.915 44.4822 309.017 48.5892 307.752 52.6962C308.543 53.1701 308.543 54.1178 308.543 54.1178C321.509 42.5867 340.959 35.6365 357.88 39.4275Z" fill="#47C1BE"/>
<path d="M391.72 118.408C394.25 114.617 396.147 110.51 397.413 106.403C397.254 106.403 396.306 105.455 396.306 105.455C377.646 127.095 341.118 126.148 320.403 105.455C320.403 105.455 319.454 104.507 318.821 105.455C322.458 117.144 330.049 127.727 341.118 134.836C346.494 138.311 352.345 140.68 358.196 141.944C371.637 138.785 383.813 130.729 391.72 118.408Z" fill="#E21F26"/>
<path d="M398.677 44.4822C386.185 36.5842 371.637 34.3728 358.196 37.374C357.721 37.532 357.721 38.4797 357.721 38.4797C388.557 46.5357 405.003 74.9685 396.147 105.455C396.147 105.455 397.887 104.507 397.254 106.403C399.468 104.033 401.682 101.348 403.579 98.3466C412.435 84.6041 414.016 68.3342 409.588 53.8019C406.584 50.3267 402.947 47.1675 398.677 44.4822Z" fill="#30388F"/>
<path d="M318.821 105.297C318.347 104.033 320.719 104.665 320.403 103.401C313.445 69.9138 333.211 48.2733 357.88 39.4275C360.094 38.6377 356.14 37.8479 358.354 37.374C340.169 33.2671 320.877 38.9536 307.752 52.8541C301.743 71.0196 306.013 91.0805 318.821 105.297Z" fill="#4FB848"/>
<path d="M375.432 44.4822C370.056 41.0071 364.205 38.6377 358.354 37.374C345.071 40.3753 332.737 48.4312 324.83 60.7521C315.975 74.4947 314.393 90.7646 318.821 105.297C321.984 108.772 325.621 111.931 329.732 114.617C351.712 128.675 380.176 124.568 397.412 106.403C405.003 83.6564 396.464 57.9088 375.432 44.4822Z" fill="black"/>
<path d="M38.6128 45.9039V67.8603H77.3549V90.4486H38.6128V113.669H83.8383V136.099H16V23.6315H83.8383V45.9039H38.6128Z" fill="white"/>
<path d="M194.846 23.3156V136.099H193.739L127.008 73.073V136.099H104.395V23.4735H105.502L172.075 86.3417V23.3156H194.846Z" fill="white"/>
<path d="M238.965 45.7459V68.3342H277.707V90.9225H238.965V136.099H216.352V23.3156H284.191V45.9039H238.965V45.7459Z" fill="white"/>
<path d="M433.308 79.5494C433.308 48.7472 459.242 22.8417 489.919 22.8417C504.151 22.9996 516.643 28.6862 528.187 39.7434L515.536 56.9611C508.104 49.6949 499.091 45.272 489.761 45.272C472.208 45.272 455.605 60.7521 455.605 79.8653C455.605 99.2944 472.841 114.301 489.761 114.301C499.723 114.301 508.42 108.93 515.694 101.822L528.345 119.513C518.699 128.991 506.997 136.257 490.552 136.257C458.925 136.099 433.308 110.194 433.308 79.5494Z" fill="white"/>
<path d="M544.316 93.1339V23.7894H566.613V92.976C566.613 104.981 576.101 113.669 586.695 113.669C597.29 113.669 606.936 104.823 606.936 92.976V23.7894H629.233V92.976C629.233 117.776 610.257 135.941 586.854 135.941C563.292 136.099 544.316 117.934 544.316 93.1339Z" fill="white"/>
<path d="M642.041 115.09L659.594 102.927C664.338 110.668 671.296 114.143 680.783 114.143C691.062 114.143 698.02 110.036 698.02 104.191C698.02 96.2932 685.053 89.9748 673.509 84.2882C661.333 78.2857 647.892 71.4934 647.892 54.1178C647.892 35.3205 663.863 22.8417 683.788 22.8417C698.652 22.8417 710.986 29.0021 715.889 42.1128L699.759 53.328C696.438 46.8516 690.271 44.1663 684.104 44.1663C675.881 44.1663 669.872 48.9051 669.872 54.4337C669.872 60.9101 678.095 63.1215 690.588 68.9661C708.614 77.4959 720 86.6576 720 103.401C720 123.304 703.712 135.783 680.467 135.783C662.598 136.099 649.473 128.675 642.041 115.09Z" fill="white"/>
</svg>
