<?xml version="1.0" encoding="UTF-8"?>
<svg xmlns="http://www.w3.org/2000/svg" width="260" height="257" viewBox="0 0 260 257" fill="none">
  <path d="M101.069 256.675C82.1858 252.45 64.1652 243.742 48.9901 231.671L84.9449 186.576C93.3947 193.302 103.397 198.13 113.829 200.458L101.155 256.675H101.069ZM158.751 256.589L145.904 200.372C156.337 197.958 166.339 193.129 174.703 186.404L210.744 231.412C195.568 243.569 177.634 252.192 158.751 256.503M12.949 186.576C4.41298 168.901 0.101848 150.018 0.015625 130.273H57.6985C57.6985 141.137 60.1128 151.656 64.855 161.399L12.949 186.576ZM246.698 186.404L194.792 161.399C199.448 151.656 201.863 141.223 201.863 130.359V129.755H259.546C259.546 149.845 255.235 168.814 246.698 186.49M64.7688 98.974L12.7766 74.0557C21.1402 56.6387 33.5562 41.0324 48.6452 28.875L84.7724 73.8832C76.3226 80.6086 69.4248 89.3171 64.7688 99.0602M194.706 98.5429C189.964 88.886 183.066 80.2637 174.616 73.5383L210.399 28.3577C225.574 40.3426 238.076 55.9489 246.526 73.2797L194.706 98.5429ZM113.571 59.8289L100.637 3.61183C119.434 -0.699304 139.524 -0.78553 158.32 3.43938L145.732 59.7427C135.299 57.4147 124.09 57.4147 113.571 59.8289Z" fill="#AD47C6"></path>
</svg>
