<?xml version="1.0" encoding="UTF-8"?>
<svg xmlns="http://www.w3.org/2000/svg" width="274" height="269" viewBox="0 0 274 269" fill="none">
  <path d="M36.1719 104.776L2.29206 112.806C-0.0648006 127.22 -0.0648006 141.634 2.29206 155.661L36.1719 163.787C38.2342 170.559 40.9838 177.137 44.4209 183.425L26.2535 212.737C34.6989 224.249 45.0101 234.503 56.9908 243.016L86.7462 225.12C89.8886 226.764 93.1293 228.312 96.5664 229.666C99.9053 231.021 103.342 232.182 106.779 233.246L115.028 266.621C129.661 268.943 144.293 268.943 158.532 266.621L166.781 233.246C173.655 231.214 180.333 228.506 186.716 225.12L216.472 243.016C228.158 234.697 238.567 224.539 247.209 212.737L229.14 183.425C230.809 180.33 232.38 177.137 233.755 173.848C235.13 170.559 236.308 167.173 237.389 163.787L271.269 155.661C273.625 141.247 273.625 126.833 271.269 112.806L237.389 104.68C235.326 97.9078 232.577 91.3296 229.14 85.0415L247.307 55.7296C238.862 44.2176 228.55 33.9633 216.57 25.4502L186.814 43.347C183.672 41.7024 180.431 40.1546 177.092 38.8002C173.754 37.4459 170.316 36.1883 166.879 35.2209L158.63 1.84592C143.998 -0.47582 129.366 -0.47582 115.127 1.84592L106.878 35.2209C100.003 37.2524 93.2275 39.9611 86.9426 43.347L57.1872 25.4502C45.5011 33.7698 35.0917 43.9274 26.4499 55.7296L44.5191 85.0415C42.8497 88.1372 41.2784 91.3296 39.9036 94.6187C38.5288 97.9078 37.3503 101.294 36.2701 104.68M87.139 114.063C98.5305 87.0731 129.955 74.2067 157.354 85.4285C184.752 96.6502 197.813 127.607 186.422 154.597C175.03 181.587 143.704 194.453 116.207 183.232C88.8084 172.01 75.7475 141.053 87.139 114.063Z" fill="#0A78EC"></path>
</svg>
