<?xml version="1.0" encoding="UTF-8"?>
<svg xmlns="http://www.w3.org/2000/svg" width="270" height="270" viewBox="0 0 270 270" fill="none">
  <path d="M135.624 269.858C118.129 269.858 101.441 266.449 86.0988 260.438L122.345 197.542C126.652 198.439 131.048 198.888 135.624 198.888C163.796 198.888 187.661 180.674 196.184 155.462L268.946 155.462C259.077 220.242 203.092 269.769 135.624 269.769" fill="#FF7101"></path>
  <path d="M269.035 114.378L196.273 114.378C187.66 89.1659 163.884 70.9522 135.713 70.9522C131.137 70.9522 126.741 71.4008 122.434 72.298L86.1877 9.49184C101.53 3.39067 118.217 0.0709163 135.713 0.070917C203.271 0.07092 259.166 49.6878 269.035 114.378Z" fill="#FF7101"></path>
  <path d="M0.775218 134.934C0.77522 92.6744 20.2442 54.9907 50.659 30.2272L87.085 93.3025C77.485 104.518 71.6533 118.963 71.6533 134.934C71.6533 150.905 77.485 165.35 87.085 176.566L50.659 239.641C20.2442 214.877 0.775216 177.194 0.775218 134.934Z" fill="#FF7101"></path>
</svg>
