<?xml version="1.0" encoding="UTF-8"?> <svg xmlns="http://www.w3.org/2000/svg" id="Ebene_2" data-name="Ebene 2" viewBox="0 0 183.37 42.7"><defs><style> .cls-1 { fill: #e40039; } </style></defs><g id="impressed_4c" data-name="impressed 4c"><g><g><g><path d="M32.57,10.26c-3.05,0-5.53,1.43-6.69,4.17-1.2-2.74-3.68-4.17-6.69-4.17-4.29,0-7.52,2.66-7.52,8.19v10.87h2.51v-10.87c0-3.95,2.18-5.86,5.19-5.86s5.27,1.99,5.27,5.86v10.87h2.51v-10.87c0-3.87,2.22-5.86,5.23-5.86s5.19,1.92,5.19,5.86v10.87h2.51v-10.87c0-5.53-3.23-8.19-7.52-8.19h0Z"></path><path d="M53.7,10.26c-5.75,0-9.92,3.91-9.92,9.89v22.55h2.51v-17.36c1.39,2.82,4.29,4.47,7.82,4.47,5.45,0,9.62-3.98,9.62-9.7s-4.13-9.85-10.04-9.85h0ZM53.74,27.48c-4.48,0-7.45-3.16-7.45-7.45s2.97-7.45,7.45-7.45,7.45,3.16,7.45,7.45-3.01,7.45-7.45,7.45Z"></path><path d="M94,10.26c-5.87,0-10,4.13-10,9.77s4.13,9.77,10,9.77c4.32,0,7.71-2.25,9.13-5.68h-2.74c-1.2,2.15-3.46,3.35-6.39,3.35-4.17,0-7.07-2.75-7.41-6.62h17.33v-.83c0-5.64-4.06-9.77-9.92-9.77h0ZM86.67,18.61c.56-3.65,3.46-6.02,7.33-6.02s6.69,2.26,7.3,6.02h-14.63Z"></path><path d="M151.3,10.26c-5.87,0-10,4.13-10,9.77s4.13,9.77,10,9.77c4.32,0,7.71-2.25,9.13-5.68h-2.74c-1.2,2.15-3.46,3.35-6.39,3.35-4.17,0-7.07-2.75-7.41-6.62h17.33v-.83c0-5.64-4.06-9.77-9.92-9.77h0ZM143.96,18.61c.56-3.65,3.46-6.02,7.33-6.02s6.69,2.26,7.3,6.02h-14.63Z"></path><path d="M180.85,2.63v12.1c-1.39-2.82-4.29-4.47-7.82-4.47-5.45,0-9.62,3.98-9.62,9.7s4.13,9.85,10.04,9.85,9.92-3.91,9.92-9.89V2.63h-2.52ZM173.4,27.48c-4.44,0-7.45-3.16-7.45-7.45s3.01-7.45,7.45-7.45,7.45,3.16,7.45,7.45-2.97,7.45-7.45,7.45Z"></path><path d="M74.49,10.26c-4.63,0-7.82,2.59-7.82,7.93v11.13h2.51v-11.13c0-3.87,2.11-5.6,5.3-5.6s5.3,1.73,5.3,5.6v.26h2.48v-.22c0-5.38-3.15-7.97-7.78-7.97h0Z"></path><path d="M114.23,18.79c-2.63-.34-5.04-.6-5.04-2.9,0-1.92,1.69-3.35,4.55-3.35s4.55,1.43,4.66,3.27h2.48c-.08-3.16-2.74-5.56-7.1-5.56s-7.1,2.36-7.1,5.86c0,4.1,3.79,4.63,7.14,5.04,2.67.34,5.04.6,5.04,2.86,0,1.99-1.81,3.5-5.04,3.5s-4.93-1.43-5.04-3.42h-2.55c.11,3.27,3,5.71,7.59,5.71s7.59-2.44,7.59-5.97c0-4.21-4.28-4.66-7.18-5.04Z"></path><path d="M131.82,18.79c-2.63-.34-5.04-.6-5.04-2.9,0-1.92,1.69-3.35,4.55-3.35s4.55,1.43,4.66,3.27h2.48c-.07-3.16-2.74-5.56-7.1-5.56s-7.1,2.36-7.1,5.86c0,4.1,3.79,4.63,7.14,5.04,2.67.34,5.04.6,5.04,2.86,0,1.99-1.81,3.5-5.04,3.5s-4.93-1.43-5.04-3.42h-2.55c.11,3.27,3,5.71,7.59,5.71s7.59-2.44,7.59-5.97c0-4.21-4.28-4.66-7.18-5.04Z"></path></g><polygon points="4.79 15.86 4.79 29.32 7.31 29.32 7.31 14.53 4.79 15.86"></polygon></g><rect class="cls-1" x="1.8" y="1.8" width="10.21" height="10.21" transform="translate(-2.43 4.05) rotate(-28)"></rect></g></g></svg> 